{"title":"Crazy.Enough.2012.DVDRip.XviD-IGUANA","uid":8364414,"size":733224479,"categoryP":"video","categoryS":"movies","magnet":"?xt=urn:btih:50911596f05f2a8440e0d471369cac8446fd7dc3&amp;dn=Crazy.Enough.2012.DVDRip.XviD-IGUANA&amp;tr=udp%3A%2F%2Ftracker.openbittorrent.com%3A80&amp;tr=udp%3A%2F%2Fopen.demonii.com%3A1337&amp;tr=udp%3A%2F%2Ftracker.coppersurfer.tk%3A6969&amp;tr=udp%3A%2F%2Fexodus.desync.com%3A6969","seeders":1,"leechers":0,"uploader":"R0thschild","files":-1,"time":1365730013,"description":"Supplier:IGUANA           Genre.......:Comedy\nRipper..:IGUANA           Runtime.....:102 min\nFormat..:XviD             IMDB Rating.:4.1/10\nSource..: DVD R1           \n\nStore Date..:04/09/13\nRelease Date:04/10/13\n\n\nFormat                           : AVI\nFormat/Info                      : Audio Video Interleave\nFile size                        : 697 MiB\nDuration                         : 1h 42mn\nOverall bit rate                 : 952 Kbps\nWriting application              : VirtualDubMod 1.5.10.2 (build 2540/release)\nWriting library                  : VirtualDubMod build 2540/release\n\nVideo\nID                               : 0\nFormat                           : MPEG-4 Visual\nFormat profile                   : Advanced Simple@L5\nFormat settings, BVOP            : 2\nFormat settings, QPel            : No\nFormat settings, GMC             : No warppoints\nFormat settings, Matrix          : Default (H.263)\nMuxing mode                      : Packed bitstream\nCodec ID                         : XVID\nCodec ID/Hint                    : XviD\nDuration                         : 1h 42mn\nBit rate                         : 746 Kbps\nWidth                            : 624 pixels\nHeight                           : 352 pixels\nDisplay aspect ratio             : 16:9\nFrame rate                       : 23.976 fps\nColor space                      : YUV\nChroma subsampling               : 4:2:0\nBit depth                        : 8 bits\nScan type                        : Progressive\nCompression mode                 : Lossy\nBits/(Pixel*Frame)               : 0.142\nStream size                      : 546 MiB (78%)\nWriting library                  : XviD 64\n\nAudio\nID                               : 1\nFormat                           : MPEG Audio\nFormat version                   : Version 1\nFormat profile                   : Layer 3\nMode                             : Joint stereo\nCodec ID                         : 55\nCodec ID/Hint                    : MP3\nDuration                         : 1h 42mn\nBit rate mode                    : Variable\nBit rate                         : 192 Kbps\nChannel(s)                       : 2 channels\nSampling rate                    : 48.0 KHz\nCompression mode                 : Lossy\nStream size                      : 142 MiB (20%)\nAlignment                        : Aligned on interleaves\nInterleave, duration             : 24 ms (0.58 video frame)\nInterleave, preload duration     : 95 ms\nWriting library                  : LAME3.90.\nEncoding settings                : -m j -V 4 -q 2 -lowpass 19.6 --abr 192\n\nScreens: \n &lt;a href=&quot;\nhttp://imgsure.com/?p=677508&quot; rel=&quot;nofollow&quot; target=&quot;_NEW&quot;&gt;\nhttp://imgsure.com/?p=677508&lt;/a&gt; &lt;a href=&quot;\nhttp://imgsure.com/?p=801913&quot; rel=&quot;nofollow&quot; target=&quot;_NEW&quot;&gt;\nhttp://imgsure.com/?p=801913&lt;/a&gt; &lt;a href=&quot;\nhttp://imgsure.com/?p=474060&quot; rel=&quot;nofollow&quot; target=&quot;_NEW&quot;&gt;\nhttp://imgsure.com/?p=474060&lt;/a&gt; &lt;a href=&quot;\nhttp://imgsure.com/?p=640746&quot; rel=&quot;nofollow&quot; target=&quot;_NEW&quot;&gt;\nhttp://imgsure.com/?p=640746&lt;/a&gt;","torrent":{"xt":"urn:btih:50911596f05f2a8440e0d471369cac8446fd7dc3","amp;dn":"Crazy.Enough.2012.DVDRip.XviD-IGUANA","amp;tr":["udp%3A%2F%2Ftracker.openbittorrent.com%3A80","udp%3A%2F%2Fopen.demonii.com%3A1337","udp%3A%2F%2Ftracker.coppersurfer.tk%3A6969","udp%3A%2F%2Fexodus.desync.com%3A6969"],"infoHash":"50911596f05f2a8440e0d471369cac8446fd7dc3","infoHashBuffer":{"type":"Buffer","data":[80,145,21,150,240,95,42,132,64,224,212,113,54,156,172,132,70,253,125,195]},"announce":[],"urlList":[]}}